<?xml version="1.0" standalone="no"?>
<!DOCTYPE svg PUBLIC "-//W3C//DTD SVG 20010904//EN"
 "http://www.w3.org/TR/2001/REC-SVG-20010904/DTD/svg10.dtd">
<svg version="1.0" xmlns="http://www.w3.org/2000/svg"
 width="700.000000pt" height="700.000000pt" viewBox="0 0 700.000000 700.000000"
 preserveAspectRatio="xMidYMid meet">
<metadata>
Created by potrace 1.11, written by Peter Selinger 2001-2013
</metadata>
<g transform="translate(0.000000,700.000000) scale(0.100000,-0.100000)"
fill="#000000" stroke="none">
<path d="M3076 6562 c-10 -2 -607 -593 -1327 -1313 -931 -931 -1309 -1316
-1310 -1332 0 -12 -1 -798 -2 -1745 0 -1214 3 -1726 10 -1730 8 -5 3409 -8
3480 -3 7 1 603 591 1324 1313 l1312 1311 1 1740 c1 956 -2 1744 -6 1750 -4 7
-518 11 -1735 11 -951 1 -1737 -1 -1747 -2z"/>
</g>
</svg>
